<svg width="142" height="73" viewBox="0 0 142 73" fill="none" xmlns="http://www.w3.org/2000/svg">
<rect x="1" y="2" width="141" height="71" rx="35.5" fill="#3D8AD1"/>
<path d="M13 41.5V40H11.5V38.5H14.5V40H19V37H13V35.5H11.5V32.5H13V31H20.5V32.5H22V34H19V32.5H14.5V35.5H20.5V37H22V40H20.5V41.5H13ZM23.5 43V34H32.5V35.5H34V38.5H32.5V40H26.5V43H23.5ZM26.5 38.5H31V35.5H26.5V38.5ZM40 32.5V31H43V32.5H40ZM37 41.5V40H40V35.5H38.5V34H43V40H46V41.5H37ZM47.5 41.5V34H56.5V35.5H58V41.5H55V35.5H50.5V41.5H47.5ZM71.5 41.5V34H73V32.5H74.5V31H79V32.5H80.5V34H82V41.5H79V38.5H74.5V41.5H71.5ZM74.5 37H79V34H77.5V32.5H76V34H74.5V37ZM85 43V41.5H91V40H85V38.5H83.5V35.5H85V34H94V41.5H92.5V43H85ZM86.5 38.5H91V35.5H86.5V38.5ZM97 41.5V40H95.5V38.5H97V37H103V35.5H97V34H104.5V35.5H106V41.5H97ZM98.5 40H103V38.5H98.5V40ZM112 32.5V31H115V32.5H112ZM109 41.5V40H112V35.5H110.5V34H115V40H118V41.5H109ZM119.5 41.5V34H128.5V35.5H130V41.5H127V35.5H122.5V41.5H119.5Z" fill="white"/>
</svg>
